<svg width="1024" height="753" viewBox="0 0 1024 753" fill="none" xmlns="http://www.w3.org/2000/svg">
<g clip-path="url(#clip0_175_1884)">
<rect width="1024" height="753" fill="#121214"/>
<g opacity="0.1" filter="url(#filter0_f_175_1884)">
<ellipse cx="502.5" cy="-99" rx="670.5" ry="350" fill="#338AF3"/>
</g>
<path d="M23.0349 137C24.5302 137 25.6622 137.63 26.4308 138.891C27.2134 140.138 27.6047 141.953 27.6047 144.336C27.6047 146.719 27.2134 148.541 26.4308 149.802C25.6622 151.063 24.5302 151.693 23.0349 151.693C21.5536 151.693 20.4216 151.063 19.639 149.802C18.8564 148.541 18.4651 146.719 18.4651 144.336C18.4651 141.967 18.8564 140.152 19.639 138.891C20.4216 137.63 21.5536 137 23.0349 137ZM19.9534 144.336C19.9534 146.026 20.1072 147.35 20.4146 148.306L25.0683 139.099C24.5791 138.448 23.9013 138.122 23.0349 138.122C22.0706 138.122 21.316 138.635 20.771 139.66C20.2259 140.672 19.9534 142.23 19.9534 144.336ZM23.0349 150.55C24.0131 150.55 24.7748 150.044 25.3198 149.033C25.8648 148.008 26.1373 146.442 26.1373 144.336C26.1373 142.549 25.9627 141.163 25.6133 140.18L20.9596 149.469C21.4627 150.19 22.1545 150.55 23.0349 150.55Z" fill="url(#paint0_linear_175_1884)" fill-opacity="0.6"/>
<path d="M24.2926 174.135H27.3741V175.236H19.3874V174.135H22.9511V162.455L19.5551 164.471L18.9682 163.536L23.1607 160.959H24.2926V174.135Z" fill="url(#paint1_linear_175_1884)" fill-opacity="0.6"/>
<path d="M23.0349 184.502C24.5302 184.502 25.6622 185.133 26.4308 186.393C27.2134 187.64 27.6047 189.455 27.6047 191.838C27.6047 194.221 27.2134 196.043 26.4308 197.304C25.6622 198.565 24.5302 199.195 23.0349 199.195C21.5536 199.195 20.4216 198.565 19.639 197.304C18.8564 196.043 18.4651 194.221 18.4651 191.838C18.4651 189.469 18.8564 187.654 19.639 186.393C20.4216 185.133 21.5536 184.502 23.0349 184.502ZM19.9534 191.838C19.9534 193.529 20.1072 194.852 20.4146 195.808L25.0683 186.601C24.5791 185.95 23.9013 185.624 23.0349 185.624C22.0706 185.624 21.316 186.137 20.771 187.162C20.2259 188.174 19.9534 189.732 19.9534 191.838ZM23.0349 198.052C24.0131 198.052 24.7748 197.546 25.3198 196.535C25.8648 195.51 26.1373 193.944 26.1373 191.838C26.1373 190.051 25.9627 188.665 25.6133 187.682L20.9596 196.971C21.4627 197.692 22.1545 198.052 23.0349 198.052Z" fill="url(#paint2_linear_175_1884)" fill-opacity="0.6"/>
<path d="M24.2926 221.637H27.3741V222.738H19.3874V221.637H22.9511V209.957L19.5551 211.973L18.9682 211.038L23.1607 208.461H24.2926V221.637Z" fill="url(#paint3_linear_175_1884)" fill-opacity="0.6"/>
<path d="M24.2926 245.388H27.3741V246.489H19.3874V245.388H22.9511V233.708L19.5551 235.724L18.9682 234.789L23.1607 232.212H24.2926V245.388Z" fill="url(#paint4_linear_175_1884)" fill-opacity="0.6"/>
<path d="M23.0349 255.755C24.5302 255.755 25.6622 256.386 26.4308 257.646C27.2134 258.893 27.6047 260.708 27.6047 263.091C27.6047 265.474 27.2134 267.296 26.4308 268.557C25.6622 269.818 24.5302 270.448 23.0349 270.448C21.5536 270.448 20.4216 269.818 19.639 268.557C18.8564 267.296 18.4651 265.474 18.4651 263.091C18.4651 260.722 18.8564 258.907 19.639 257.646C20.4216 256.386 21.5536 255.755 23.0349 255.755ZM19.9534 263.091C19.9534 264.782 20.1072 266.105 20.4146 267.061L25.0683 257.854C24.5791 257.203 23.9013 256.878 23.0349 256.878C22.0706 256.878 21.316 257.39 20.771 258.415C20.2259 259.427 19.9534 260.985 19.9534 263.091ZM23.0349 269.305C24.0131 269.305 24.7748 268.8 25.3198 267.788C25.8648 266.763 26.1373 265.197 26.1373 263.091C26.1373 261.304 25.9627 259.919 25.6133 258.935L20.9596 268.225C21.4627 268.945 22.1545 269.305 23.0349 269.305Z" fill="url(#paint5_linear_175_1884)" fill-opacity="0.6"/>
<path d="M24.2926 292.89H27.3741V293.992H19.3874V292.89H22.9511V281.21L19.5551 283.226L18.9682 282.291L23.1607 279.714H24.2926V292.89Z" fill="url(#paint6_linear_175_1884)" fill-opacity="0.6"/>
<path d="M23.0349 303.257C24.5302 303.257 25.6622 303.888 26.4308 305.149C27.2134 306.396 27.6047 308.211 27.6047 310.594C27.6047 312.977 27.2134 314.798 26.4308 316.059C25.6622 317.32 24.5302 317.95 23.0349 317.95C21.5536 317.95 20.4216 317.32 19.639 316.059C18.8564 314.798 18.4651 312.977 18.4651 310.594C18.4651 308.224 18.8564 306.409 19.639 305.149C20.4216 303.888 21.5536 303.257 23.0349 303.257ZM19.9534 310.594C19.9534 312.284 20.1072 313.607 20.4146 314.563L25.0683 305.356C24.5791 304.705 23.9013 304.38 23.0349 304.38C22.0706 304.38 21.316 304.892 20.771 305.918C20.2259 306.929 19.9534 308.488 19.9534 310.594ZM23.0349 316.807C24.0131 316.807 24.7748 316.302 25.3198 315.29C25.8648 314.265 26.1373 312.699 26.1373 310.594C26.1373 308.806 25.9627 307.421 25.6133 306.437L20.9596 315.727C21.4627 316.447 22.1545 316.807 23.0349 316.807Z" fill="url(#paint7_linear_175_1884)" fill-opacity="0.6"/>
<path d="M23.0349 327.008C24.5302 327.008 25.6622 327.639 26.4308 328.9C27.2134 330.147 27.6047 331.962 27.6047 334.345C27.6047 336.728 27.2134 338.549 26.4308 339.81C25.6622 341.071 24.5302 341.701 23.0349 341.701C21.5536 341.701 20.4216 341.071 19.639 339.81C18.8564 338.549 18.4651 336.728 18.4651 334.345C18.4651 331.975 18.8564 330.16 19.639 328.9C20.4216 327.639 21.5536 327.008 23.0349 327.008ZM19.9534 334.345C19.9534 336.035 20.1072 337.358 20.4146 338.314L25.0683 329.107C24.5791 328.456 23.9013 328.131 23.0349 328.131C22.0706 328.131 21.316 328.643 20.771 329.669C20.2259 330.68 19.9534 332.239 19.9534 334.345ZM23.0349 340.558C24.0131 340.558 24.7748 340.053 25.3198 339.041C25.8648 338.016 26.1373 336.451 26.1373 334.345C26.1373 332.557 25.9627 331.172 25.6133 330.188L20.9596 339.478C21.4627 340.198 22.1545 340.558 23.0349 340.558Z" fill="url(#paint8_linear_175_1884)" fill-opacity="0.6"/>
<path d="M24.2926 364.143H27.3741V365.245H19.3874V364.143H22.9511V352.464L19.5551 354.48L18.9682 353.544L23.1607 350.967H24.2926V364.143Z" fill="url(#paint9_linear_175_1884)" fill-opacity="0.6"/>
<path d="M23.0349 374.511C24.5302 374.511 25.6622 375.141 26.4308 376.402C27.2134 377.649 27.6047 379.464 27.6047 381.847C27.6047 384.23 27.2134 386.052 26.4308 387.312C25.6622 388.573 24.5302 389.204 23.0349 389.204C21.5536 389.204 20.4216 388.573 19.639 387.312C18.8564 386.052 18.4651 384.23 18.4651 381.847C18.4651 379.478 18.8564 377.663 19.639 376.402C20.4216 375.141 21.5536 374.511 23.0349 374.511ZM19.9534 381.847C19.9534 383.537 20.1072 384.86 20.4146 385.816L25.0683 376.61C24.5791 375.958 23.9013 375.633 23.0349 375.633C22.0706 375.633 21.316 376.145 20.771 377.171C20.2259 378.182 19.9534 379.741 19.9534 381.847ZM23.0349 388.061C24.0131 388.061 24.7748 387.555 25.3198 386.543C25.8648 385.518 26.1373 383.953 26.1373 381.847C26.1373 380.059 25.9627 378.674 25.6133 377.69L20.9596 386.98C21.4627 387.7 22.1545 388.061 23.0349 388.061Z" fill="url(#paint10_linear_175_1884)" fill-opacity="0.6"/>
<path d="M24.2926 411.645H27.3741V412.747H19.3874V411.645H22.9511V399.966L19.5551 401.982L18.9682 401.046L23.1607 398.469H24.2926V411.645Z" fill="url(#paint11_linear_175_1884)" fill-opacity="0.6"/>
<path d="M24.2926 435.396H27.3741V436.498H19.3874V435.396H22.9511V423.717L19.5551 425.733L18.9682 424.798L23.1607 422.221H24.2926V435.396Z" fill="url(#paint12_linear_175_1884)" fill-opacity="0.6"/>
<path d="M61.9651 184.502C63.4604 184.502 64.5924 185.133 65.361 186.393C66.1436 187.64 66.5349 189.455 66.5349 191.838C66.5349 194.221 66.1436 196.043 65.361 197.304C64.5924 198.565 63.4604 199.195 61.9651 199.195C60.4838 199.195 59.3518 198.565 58.5692 197.304C57.7866 196.043 57.3953 194.221 57.3953 191.838C57.3953 189.469 57.7866 187.654 58.5692 186.393C59.3518 185.133 60.4838 184.502 61.9651 184.502ZM58.8836 191.838C58.8836 193.529 59.0374 194.852 59.3448 195.808L63.9985 186.601C63.5093 185.95 62.8315 185.624 61.9651 185.624C61.0008 185.624 60.2462 186.137 59.7012 187.162C59.1561 188.174 58.8836 189.732 58.8836 191.838ZM61.9651 198.052C62.9433 198.052 63.705 197.546 64.25 196.535C64.795 195.51 65.0675 193.944 65.0675 191.838C65.0675 190.051 64.8928 188.665 64.5435 187.682L59.8898 196.971C60.3929 197.692 61.0847 198.052 61.9651 198.052Z" fill="url(#paint13_linear_175_1884)" fill-opacity="0.6"/>
<path d="M63.2228 221.637H66.3043V222.738H58.3176V221.637H61.8812V209.957L58.4853 211.973L57.8984 211.038L62.0909 208.461H63.2228V221.637Z" fill="url(#paint14_linear_175_1884)" fill-opacity="0.6"/>
<path d="M61.9651 232.004C63.4604 232.004 64.5924 232.635 65.361 233.895C66.1436 235.142 66.5349 236.957 66.5349 239.34C66.5349 241.723 66.1436 243.545 65.361 244.806C64.5924 246.067 63.4604 246.697 61.9651 246.697C60.4838 246.697 59.3518 246.067 58.5692 244.806C57.7866 243.545 57.3953 241.723 57.3953 239.34C57.3953 236.971 57.7866 235.156 58.5692 233.895C59.3518 232.635 60.4838 232.004 61.9651 232.004ZM58.8836 239.34C58.8836 241.031 59.0374 242.354 59.3448 243.31L63.9985 234.103C63.5093 233.452 62.8315 233.126 61.9651 233.126C61.0008 233.126 60.2462 233.639 59.7012 234.664C59.1561 235.676 58.8836 237.234 58.8836 239.34ZM61.9651 245.554C62.9433 245.554 63.705 245.049 64.25 244.037C64.795 243.012 65.0675 241.446 65.0675 239.34C65.0675 237.553 64.8928 236.168 64.5435 235.184L59.8898 244.474C60.3929 245.194 61.0847 245.554 61.9651 245.554Z" fill="url(#paint15_linear_175_1884)" fill-opacity="0.6"/>
<path d="M61.9651 255.755C63.4604 255.755 64.5924 256.386 65.361 257.646C66.1436 258.893 66.5349 260.708 66.5349 263.091C66.5349 265.474 66.1436 267.296 65.361 268.557C64.5924 269.818 63.4604 270.448 61.9651 270.448C60.4838 270.448 59.3518 269.818 58.5692 268.557C57.7866 267.296 57.3953 265.474 57.3953 263.091C57.3953 260.722 57.7866 258.907 58.5692 257.646C59.3518 256.386 60.4838 255.755 61.9651 255.755ZM58.8836 263.091C58.8836 264.782 59.0374 266.105 59.3448 267.061L63.9985 257.854C63.5093 257.203 62.8315 256.878 61.9651 256.878C61.0008 256.878 60.2462 257.39 59.7012 258.415C59.1561 259.427 58.8836 260.985 58.8836 263.091ZM61.9651 269.305C62.9433 269.305 63.705 268.8 64.25 267.788C64.795 266.763 65.0675 265.197 65.0675 263.091C65.0675 261.304 64.8928 259.919 64.5435 258.935L59.8898 268.225C60.3929 268.945 61.0847 269.305 61.9651 269.305Z" fill="url(#paint16_linear_175_1884)" fill-opacity="0.6"/>
<path d="M63.2228 292.89H66.3043V293.992H58.3176V292.89H61.8812V281.21L58.4853 283.226L57.8984 282.291L62.0909 279.714H63.2228V292.89Z" fill="url(#paint17_linear_175_1884)" fill-opacity="0.6"/>
<path d="M61.9651 303.257C63.4604 303.257 64.5924 303.888 65.361 305.149C66.1436 306.396 66.5349 308.211 66.5349 310.594C66.5349 312.977 66.1436 314.798 65.361 316.059C64.5924 317.32 63.4604 317.95 61.9651 317.95C60.4838 317.95 59.3518 317.32 58.5692 316.059C57.7866 314.798 57.3953 312.977 57.3953 310.594C57.3953 308.224 57.7866 306.409 58.5692 305.149C59.3518 303.888 60.4838 303.257 61.9651 303.257ZM58.8836 310.594C58.8836 312.284 59.0374 313.607 59.3448 314.563L63.9985 305.356C63.5093 304.705 62.8315 304.38 61.9651 304.38C61.0008 304.38 60.2462 304.892 59.7012 305.918C59.1561 306.929 58.8836 308.488 58.8836 310.594ZM61.9651 316.807C62.9433 316.807 63.705 316.302 64.25 315.29C64.795 314.265 65.0675 312.699 65.0675 310.594C65.0675 308.806 64.8928 307.421 64.5435 306.437L59.8898 315.727C60.3929 316.447 61.0847 316.807 61.9651 316.807Z" fill="url(#paint18_linear_175_1884)" fill-opacity="0.6"/>
<path d="M63.2228 340.392H66.3043V341.494H58.3176V340.392H61.8812V328.713L58.4853 330.728L57.8984 329.793L62.0909 327.216H63.2228V340.392Z" fill="url(#paint19_linear_175_1884)" fill-opacity="0.6"/>
<path d="M61.9651 350.76C63.4604 350.76 64.5924 351.39 65.361 352.651C66.1436 353.898 66.5349 355.713 66.5349 358.096C66.5349 360.479 66.1436 362.301 65.361 363.561C64.5924 364.822 63.4604 365.453 61.9651 365.453C60.4838 365.453 59.3518 364.822 58.5692 363.561C57.7866 362.301 57.3953 360.479 57.3953 358.096C57.3953 355.726 57.7866 353.911 58.5692 352.651C59.3518 351.39 60.4838 350.76 61.9651 350.76ZM58.8836 358.096C58.8836 359.786 59.0374 361.109 59.3448 362.065L63.9985 352.859C63.5093 352.207 62.8315 351.882 61.9651 351.882C61.0008 351.882 60.2462 352.394 59.7012 353.42C59.1561 354.431 58.8836 355.99 58.8836 358.096ZM61.9651 364.31C62.9433 364.31 63.705 363.804 64.25 362.792C64.795 361.767 65.0675 360.202 65.0675 358.096C65.0675 356.308 64.8928 354.923 64.5435 353.939L59.8898 363.229C60.3929 363.949 61.0847 364.31 61.9651 364.31Z" fill="url(#paint20_linear_175_1884)" fill-opacity="0.6"/>
<path d="M61.9651 374.511C63.4604 374.511 64.5924 375.141 65.361 376.402C66.1436 377.649 66.5349 379.464 66.5349 381.847C66.5349 384.23 66.1436 386.052 65.361 387.312C64.5924 388.573 63.4604 389.204 61.9651 389.204C60.4838 389.204 59.3518 388.573 58.5692 387.312C57.7866 386.052 57.3953 384.23 57.3953 381.847C57.3953 379.478 57.7866 377.663 58.5692 376.402C59.3518 375.141 60.4838 374.511 61.9651 374.511ZM58.8836 381.847C58.8836 383.537 59.0374 384.86 59.3448 385.816L63.9985 376.61C63.5093 375.958 62.8315 375.633 61.9651 375.633C61.0008 375.633 60.2462 376.145 59.7012 377.171C59.1561 378.182 58.8836 379.741 58.8836 381.847ZM61.9651 388.061C62.9433 388.061 63.705 387.555 64.25 386.543C64.795 385.518 65.0675 383.953 65.0675 381.847C65.0675 380.059 64.8928 378.674 64.5435 377.69L59.8898 386.98C60.3929 387.7 61.0847 388.061 61.9651 388.061Z" fill="url(#paint21_linear_175_1884)" fill-opacity="0.6"/>
<path d="M63.2228 411.645H66.3043V412.747H58.3176V411.645H61.8812V399.966L58.4853 401.982L57.8984 401.046L62.0909 398.469H63.2228V411.645Z" fill="url(#paint22_linear_175_1884)" fill-opacity="0.6"/>
<path d="M61.9651 422.013C63.4604 422.013 64.5924 422.643 65.361 423.904C66.1436 425.151 66.5349 426.966 66.5349 429.349C66.5349 431.732 66.1436 433.554 65.361 434.815C64.5924 436.075 63.4604 436.706 61.9651 436.706C60.4838 436.706 59.3518 436.075 58.5692 434.815C57.7866 433.554 57.3953 431.732 57.3953 429.349C57.3953 426.98 57.7866 425.165 58.5692 423.904C59.3518 422.643 60.4838 422.013 61.9651 422.013ZM58.8836 429.349C58.8836 431.039 59.0374 432.362 59.3448 433.318L63.9985 424.112C63.5093 423.461 62.8315 423.135 61.9651 423.135C61.0008 423.135 60.2462 423.648 59.7012 424.673C59.1561 425.684 58.8836 427.243 58.8836 429.349ZM61.9651 435.563C62.9433 435.563 63.705 435.057 64.25 434.046C64.795 433.02 65.0675 431.455 65.0675 429.349C65.0675 427.562 64.8928 426.176 64.5435 425.192L59.8898 434.482C60.3929 435.202 61.0847 435.563 61.9651 435.563Z" fill="url(#paint23_linear_175_1884)" fill-opacity="0.6"/>
<path d="M63.2228 459.148H66.3043V460.249H58.3176V459.148H61.8812V447.468L58.4853 449.484L57.8984 448.549L62.0909 445.972H63.2228V459.148Z" fill="url(#paint24_linear_175_1884)" fill-opacity="0.6"/>
<path d="M63.2228 482.899H66.3043V484H58.3176V482.899H61.8812V471.219L58.4853 473.235L57.8984 472.3L62.0909 469.723H63.2228V482.899Z" fill="url(#paint25_linear_175_1884)" fill-opacity="0.6"/>
<path d="M3.56981 208.253C5.06512 208.253 6.1971 208.884 6.96572 210.144C7.74831 211.391 8.13961 213.206 8.13961 215.589C8.13961 217.972 7.74831 219.794 6.96572 221.055C6.1971 222.316 5.06512 222.946 3.56981 222.946C2.08846 222.946 0.956492 222.316 0.173895 221.055C-0.608701 219.794 -1 217.972 -1 215.589C-1 213.22 -0.608701 211.405 0.173895 210.144C0.956492 208.884 2.08846 208.253 3.56981 208.253ZM0.488331 215.589C0.488331 217.28 0.642056 218.603 0.949505 219.559L5.60316 210.352C5.11404 209.701 4.43625 209.375 3.56981 209.375C2.60553 209.375 1.85089 209.888 1.30587 210.913C0.760843 211.925 0.488331 213.483 0.488331 215.589ZM3.56981 221.803C4.54805 221.803 5.30969 221.297 5.85471 220.286C6.39973 219.261 6.67224 217.695 6.67224 215.589C6.67224 213.802 6.49756 212.417 6.14818 211.433L1.49453 220.722C1.99763 221.443 2.68938 221.803 3.56981 221.803Z" fill="url(#paint26_linear_175_1884)" fill-opacity="0.6"/>
<path d="M3.56981 232.004C5.06512 232.004 6.1971 232.635 6.96572 233.895C7.74831 235.142 8.13961 236.957 8.13961 239.34C8.13961 241.723 7.74831 243.545 6.96572 244.806C6.1971 246.067 5.06512 246.697 3.56981 246.697C2.08846 246.697 0.956492 246.067 0.173895 244.806C-0.608701 243.545 -1 241.723 -1 239.34C-1 236.971 -0.608701 235.156 0.173895 233.895C0.956492 232.635 2.08846 232.004 3.56981 232.004ZM0.488331 239.34C0.488331 241.031 0.642056 242.354 0.949505 243.31L5.60316 234.103C5.11404 233.452 4.43625 233.126 3.56981 233.126C2.60553 233.126 1.85089 233.639 1.30587 234.664C0.760843 235.676 0.488331 237.234 0.488331 239.34ZM3.56981 245.554C4.54805 245.554 5.30969 245.049 5.85471 244.037C6.39973 243.012 6.67224 241.446 6.67224 239.34C6.67224 237.553 6.49756 236.168 6.14818 235.184L1.49453 244.474C1.99763 245.194 2.68938 245.554 3.56981 245.554Z" fill="url(#paint27_linear_175_1884)" fill-opacity="0.6"/>
<path d="M4.82755 269.139H7.90903V270.24H-0.0776539V269.139H3.48596V257.459L0.0900455 259.475L-0.496902 258.54L3.69558 255.963H4.82755V269.139Z" fill="url(#paint28_linear_175_1884)" fill-opacity="0.6"/>
<path d="M3.56981 279.506C5.06512 279.506 6.1971 280.137 6.96572 281.398C7.74831 282.644 8.13961 284.459 8.13961 286.842C8.13961 289.225 7.74831 291.047 6.96572 292.308C6.1971 293.569 5.06512 294.199 3.56981 294.199C2.08846 294.199 0.956492 293.569 0.173895 292.308C-0.608701 291.047 -1 289.225 -1 286.842C-1 284.473 -0.608701 282.658 0.173895 281.398C0.956492 280.137 2.08846 279.506 3.56981 279.506ZM0.488331 286.842C0.488331 288.533 0.642056 289.856 0.949505 290.812L5.60316 281.605C5.11404 280.954 4.43625 280.629 3.56981 280.629C2.60553 280.629 1.85089 281.141 1.30587 282.166C0.760843 283.178 0.488331 284.737 0.488331 286.842ZM3.56981 293.056C4.54805 293.056 5.30969 292.551 5.85471 291.539C6.39973 290.514 6.67224 288.948 6.67224 286.842C6.67224 285.055 6.49756 283.67 6.14818 282.686L1.49453 291.976C1.99763 292.696 2.68938 293.056 3.56981 293.056Z" fill="url(#paint29_linear_175_1884)" fill-opacity="0.6"/>
<path d="M4.82755 316.641H7.90903V317.743H-0.0776539V316.641H3.48596V304.962L0.0900455 306.977L-0.496902 306.042L3.69558 303.465H4.82755V316.641Z" fill="url(#paint30_linear_175_1884)" fill-opacity="0.6"/>
<path d="M4.82755 340.392H7.90903V341.494H-0.0776539V340.392H3.48596V328.713L0.0900455 330.728L-0.496902 329.793L3.69558 327.216H4.82755V340.392Z" fill="url(#paint31_linear_175_1884)" fill-opacity="0.6"/>
<path d="M43.7577 174.135H46.8392V175.236H38.8525V174.135H42.4162V162.455L39.0202 164.471L38.4333 163.536L42.6258 160.959H43.7577V174.135Z" fill="url(#paint32_linear_175_1884)" fill-opacity="0.6"/>
<path d="M42.5 184.502C43.9953 184.502 45.1273 185.133 45.8959 186.393C46.6785 187.64 47.0698 189.455 47.0698 191.838C47.0698 194.221 46.6785 196.043 45.8959 197.304C45.1273 198.565 43.9953 199.195 42.5 199.195C41.0187 199.195 39.8867 198.565 39.1041 197.304C38.3215 196.043 37.9302 194.221 37.9302 191.838C37.9302 189.469 38.3215 187.654 39.1041 186.393C39.8867 185.133 41.0187 184.502 42.5 184.502ZM39.4185 191.838C39.4185 193.529 39.5723 194.852 39.8797 195.808L44.5334 186.601C44.0442 185.95 43.3664 185.624 42.5 185.624C41.5357 185.624 40.7811 186.137 40.2361 187.162C39.691 188.174 39.4185 189.732 39.4185 191.838ZM42.5 198.052C43.4782 198.052 44.2399 197.546 44.7849 196.535C45.3299 195.51 45.6024 193.944 45.6024 191.838C45.6024 190.051 45.4277 188.665 45.0784 187.682L40.4247 196.971C40.9278 197.692 41.6196 198.052 42.5 198.052Z" fill="url(#paint33_linear_175_1884)" fill-opacity="0.6"/>
<path d="M43.7577 221.637H46.8392V222.738H38.8525V221.637H42.4162V209.957L39.0202 211.973L38.4333 211.038L42.6258 208.461H43.7577V221.637Z" fill="url(#paint34_linear_175_1884)" fill-opacity="0.6"/>
<path d="M43.7577 245.388H46.8392V246.489H38.8525V245.388H42.4162V233.708L39.0202 235.724L38.4333 234.789L42.6258 232.212H43.7577V245.388Z" fill="url(#paint35_linear_175_1884)" fill-opacity="0.6"/>
<path d="M42.5 255.755C43.9953 255.755 45.1273 256.386 45.8959 257.646C46.6785 258.893 47.0698 260.708 47.0698 263.091C47.0698 265.474 46.6785 267.296 45.8959 268.557C45.1273 269.818 43.9953 270.448 42.5 270.448C41.0187 270.448 39.8867 269.818 39.1041 268.557C38.3215 267.296 37.9302 265.474 37.9302 263.091C37.9302 260.722 38.3215 258.907 39.1041 257.646C39.8867 256.386 41.0187 255.755 42.5 255.755ZM39.4185 263.091C39.4185 264.782 39.5723 266.105 39.8797 267.061L44.5334 257.854C44.0442 257.203 43.3664 256.878 42.5 256.878C41.5357 256.878 40.7811 257.39 40.2361 258.415C39.691 259.427 39.4185 260.985 39.4185 263.091ZM42.5 269.305C43.4782 269.305 44.2399 268.8 44.7849 267.788C45.3299 266.763 45.6024 265.197 45.6024 263.091C45.6024 261.304 45.4277 259.919 45.0784 258.935L40.4247 268.225C40.9278 268.945 41.6196 269.305 42.5 269.305Z" fill="url(#paint36_linear_175_1884)" fill-opacity="0.6"/>
<path d="M43.7577 292.89H46.8392V293.992H38.8525V292.89H42.4162V281.21L39.0202 283.226L38.4333 282.291L42.6258 279.714H43.7577V292.89Z" fill="url(#paint37_linear_175_1884)" fill-opacity="0.6"/>
<path d="M43.7577 316.641H46.8392V317.743H38.8525V316.641H42.4162V304.962L39.0202 306.977L38.4333 306.042L42.6258 303.465H43.7577V316.641Z" fill="url(#paint38_linear_175_1884)" fill-opacity="0.6"/>
<path d="M42.5 327.008C43.9953 327.008 45.1273 327.639 45.8959 328.9C46.6785 330.147 47.0698 331.962 47.0698 334.345C47.0698 336.728 46.6785 338.549 45.8959 339.81C45.1273 341.071 43.9953 341.701 42.5 341.701C41.0187 341.701 39.8867 341.071 39.1041 339.81C38.3215 338.549 37.9302 336.728 37.9302 334.345C37.9302 331.975 38.3215 330.16 39.1041 328.9C39.8867 327.639 41.0187 327.008 42.5 327.008ZM39.4185 334.345C39.4185 336.035 39.5723 337.358 39.8797 338.314L44.5334 329.107C44.0442 328.456 43.3664 328.131 42.5 328.131C41.5357 328.131 40.7811 328.643 40.2361 329.669C39.691 330.68 39.4185 332.239 39.4185 334.345ZM42.5 340.558C43.4782 340.558 44.2399 340.053 44.7849 339.041C45.3299 338.016 45.6024 336.451 45.6024 334.345C45.6024 332.557 45.4277 331.172 45.0784 330.188L40.4247 339.478C40.9278 340.198 41.6196 340.558 42.5 340.558Z" fill="url(#paint39_linear_175_1884)" fill-opacity="0.6"/>
<path d="M43.7577 364.143H46.8392V365.245H38.8525V364.143H42.4162V352.464L39.0202 354.48L38.4333 353.544L42.6258 350.967H43.7577V364.143Z" fill="url(#paint40_linear_175_1884)" fill-opacity="0.6"/>
<path d="M42.5 374.511C43.9953 374.511 45.1273 375.141 45.8959 376.402C46.6785 377.649 47.0698 379.464 47.0698 381.847C47.0698 384.23 46.6785 386.052 45.8959 387.312C45.1273 388.573 43.9953 389.204 42.5 389.204C41.0187 389.204 39.8867 388.573 39.1041 387.312C38.3215 386.052 37.9302 384.23 37.9302 381.847C37.9302 379.478 38.3215 377.663 39.1041 376.402C39.8867 375.141 41.0187 374.511 42.5 374.511ZM39.4185 381.847C39.4185 383.537 39.5723 384.86 39.8797 385.816L44.5334 376.61C44.0442 375.958 43.3664 375.633 42.5 375.633C41.5357 375.633 40.7811 376.145 40.2361 377.171C39.691 378.182 39.4185 379.741 39.4185 381.847ZM42.5 388.061C43.4782 388.061 44.2399 387.555 44.7849 386.543C45.3299 385.518 45.6024 383.953 45.6024 381.847C45.6024 380.059 45.4277 378.674 45.0784 377.69L40.4247 386.98C40.9278 387.7 41.6196 388.061 42.5 388.061Z" fill="url(#paint41_linear_175_1884)" fill-opacity="0.6"/>
<path d="M81.4302 160.751C82.9255 160.751 84.0575 161.381 84.8261 162.642C85.6087 163.889 86 165.704 86 168.087C86 170.47 85.6087 172.292 84.8261 173.553C84.0575 174.814 82.9255 175.444 81.4302 175.444C79.9489 175.444 78.8169 174.814 78.0343 173.553C77.2517 172.292 76.8604 170.47 76.8604 168.087C76.8604 165.718 77.2517 163.903 78.0343 162.642C78.8169 161.381 79.9489 160.751 81.4302 160.751ZM78.3487 168.087C78.3487 169.777 78.5024 171.101 78.8099 172.057L83.4636 162.85C82.9744 162.199 82.2966 161.873 81.4302 161.873C80.4659 161.873 79.7113 162.386 79.1663 163.411C78.6212 164.423 78.3487 165.981 78.3487 168.087ZM81.4302 174.301C82.4084 174.301 83.1701 173.795 83.7151 172.784C84.2601 171.759 84.5326 170.193 84.5326 168.087C84.5326 166.3 84.3579 164.914 84.0086 163.931L79.3549 173.22C79.858 173.941 80.5498 174.301 81.4302 174.301Z" fill="url(#paint42_linear_175_1884)" fill-opacity="0.6"/>
<path d="M82.6879 197.886H85.7694V198.987H77.7827V197.886H81.3463V186.206L77.9504 188.222L77.3635 187.287L81.556 184.71H82.6879V197.886Z" fill="url(#paint43_linear_175_1884)" fill-opacity="0.6"/>
<path d="M82.6879 221.637H85.7694V222.738H77.7827V221.637H81.3463V209.957L77.9504 211.973L77.3635 211.038L81.556 208.461H82.6879V221.637Z" fill="url(#paint44_linear_175_1884)" fill-opacity="0.6"/>
<path d="M81.4302 232.004C82.9255 232.004 84.0575 232.635 84.8261 233.895C85.6087 235.142 86 236.957 86 239.34C86 241.723 85.6087 243.545 84.8261 244.806C84.0575 246.067 82.9255 246.697 81.4302 246.697C79.9489 246.697 78.8169 246.067 78.0343 244.806C77.2517 243.545 76.8604 241.723 76.8604 239.34C76.8604 236.971 77.2517 235.156 78.0343 233.895C78.8169 232.635 79.9489 232.004 81.4302 232.004ZM78.3487 239.34C78.3487 241.031 78.5024 242.354 78.8099 243.31L83.4636 234.103C82.9744 233.452 82.2966 233.126 81.4302 233.126C80.4659 233.126 79.7113 233.639 79.1663 234.664C78.6212 235.676 78.3487 237.234 78.3487 239.34ZM81.4302 245.554C82.4084 245.554 83.1701 245.049 83.7151 244.037C84.2601 243.012 84.5326 241.446 84.5326 239.34C84.5326 237.553 84.3579 236.168 84.0086 235.184L79.3549 244.474C79.858 245.194 80.5498 245.554 81.4302 245.554Z" fill="url(#paint45_linear_175_1884)" fill-opacity="0.6"/>
<path d="M81.4302 255.755C82.9255 255.755 84.0575 256.386 84.8261 257.646C85.6087 258.893 86 260.708 86 263.091C86 265.474 85.6087 267.296 84.8261 268.557C84.0575 269.818 82.9255 270.448 81.4302 270.448C79.9489 270.448 78.8169 269.818 78.0343 268.557C77.2517 267.296 76.8604 265.474 76.8604 263.091C76.8604 260.722 77.2517 258.907 78.0343 257.646C78.8169 256.386 79.9489 255.755 81.4302 255.755ZM78.3487 263.091C78.3487 264.782 78.5024 266.105 78.8099 267.061L83.4636 257.854C82.9744 257.203 82.2966 256.878 81.4302 256.878C80.4659 256.878 79.7113 257.39 79.1663 258.415C78.6212 259.427 78.3487 260.985 78.3487 263.091ZM81.4302 269.305C82.4084 269.305 83.1701 268.8 83.7151 267.788C84.2601 266.763 84.5326 265.197 84.5326 263.091C84.5326 261.304 84.3579 259.919 84.0086 258.935L79.3549 268.225C79.858 268.945 80.5498 269.305 81.4302 269.305Z" fill="url(#paint46_linear_175_1884)" fill-opacity="0.6"/>
<g opacity="0.6">
<path d="M909.93 -163C911.356 -163 912.436 -162.395 913.17 -161.185C913.916 -159.989 914.29 -158.247 914.29 -155.96C914.29 -153.673 913.916 -151.925 913.17 -150.715C912.436 -149.505 911.356 -148.9 909.93 -148.9C908.517 -148.9 907.437 -149.505 906.69 -150.715C905.943 -151.925 905.57 -153.673 905.57 -155.96C905.57 -158.233 905.943 -159.975 906.69 -161.185C907.437 -162.395 908.517 -163 909.93 -163ZM906.99 -155.96C906.99 -154.338 907.137 -153.068 907.43 -152.151L911.87 -160.986C911.403 -161.611 910.756 -161.923 909.93 -161.923C909.01 -161.923 908.29 -161.431 907.77 -160.447C907.25 -159.477 906.99 -157.981 906.99 -155.96ZM909.93 -149.997C910.863 -149.997 911.59 -150.482 912.11 -151.453C912.63 -152.436 912.89 -153.939 912.89 -155.96C912.89 -157.675 912.723 -159.005 912.39 -159.949L907.95 -151.034C908.43 -150.342 909.09 -149.997 909.93 -149.997Z" fill="url(#paint47_linear_175_1884)"/>
<path d="M911.13 -127.363H914.07V-126.306H906.45V-127.363H909.85V-138.572L906.61 -136.637L906.05 -137.535L910.05 -140.008H911.13V-127.363Z" fill="url(#paint48_linear_175_1884)"/>
<path d="M909.93 -117.414C911.356 -117.414 912.436 -116.809 913.17 -115.6C913.916 -114.403 914.29 -112.661 914.29 -110.374C914.29 -108.087 913.916 -106.339 913.17 -105.129C912.436 -103.919 911.356 -103.314 909.93 -103.314C908.517 -103.314 907.437 -103.919 906.69 -105.129C905.943 -106.339 905.57 -108.087 905.57 -110.374C905.57 -112.648 905.943 -114.39 906.69 -115.6C907.437 -116.809 908.517 -117.414 909.93 -117.414ZM906.99 -110.374C906.99 -108.752 907.137 -107.482 907.43 -106.565L911.87 -115.4C911.403 -116.025 910.756 -116.337 909.93 -116.337C909.01 -116.337 908.29 -115.845 907.77 -114.862C907.25 -113.891 906.99 -112.395 906.99 -110.374ZM909.93 -104.411C910.863 -104.411 911.59 -104.896 912.11 -105.867C912.63 -106.851 912.89 -108.353 912.89 -110.374C912.89 -112.089 912.723 -113.419 912.39 -114.363L907.95 -105.448C908.43 -104.757 909.09 -104.411 909.93 -104.411Z" fill="url(#paint49_linear_175_1884)"/>
<path d="M911.13 -81.7779H914.07V-80.7208H906.45V-81.7779H909.85V-92.9862L906.61 -91.0517L906.05 -91.9491L910.05 -94.4222H911.13V-81.7779Z" fill="url(#paint50_linear_175_1884)"/>
<path d="M911.13 -58.985H914.07V-57.928H906.45V-58.985H909.85V-70.1934L906.61 -68.2589L906.05 -69.1563L910.05 -71.6294H911.13V-58.985Z" fill="url(#paint51_linear_175_1884)"/>
<path d="M909.93 -49.036C911.356 -49.036 912.436 -48.431 913.17 -47.2211C913.916 -46.0245 914.29 -44.2827 914.29 -41.9959C914.29 -39.709 913.916 -37.9606 913.17 -36.7507C912.436 -35.5407 911.356 -34.9358 909.93 -34.9358C908.517 -34.9358 907.437 -35.5407 906.69 -36.7507C905.943 -37.9606 905.57 -39.709 905.57 -41.9959C905.57 -44.2694 905.943 -46.0112 906.69 -47.2211C907.437 -48.431 908.517 -49.036 909.93 -49.036ZM906.99 -41.9959C906.99 -40.3738 907.137 -39.104 907.43 -38.1866L911.87 -47.0217C911.403 -47.6466 910.756 -47.959 909.93 -47.959C909.01 -47.959 908.29 -47.4671 907.77 -46.4832C907.25 -45.5126 906.99 -44.0168 906.99 -41.9959ZM909.93 -36.0327C910.863 -36.0327 911.59 -36.518 912.11 -37.4886C912.63 -38.4725 912.89 -39.9749 912.89 -41.9959C912.89 -43.711 912.723 -45.0406 912.39 -45.9846L907.95 -37.0698C908.43 -36.3784 909.09 -36.0327 909.93 -36.0327Z" fill="url(#paint52_linear_175_1884)"/>
<path d="M911.13 -13.3994H914.07V-12.3424H906.45V-13.3994H909.85V-24.6078L906.61 -22.6733L906.05 -23.5707L910.05 -26.0438H911.13V-13.3994Z" fill="url(#paint53_linear_175_1884)"/>
<path d="M909.93 -3.45038C911.356 -3.45038 912.436 -2.84541 913.17 -1.6355C913.916 -0.438873 914.29 1.30288 914.29 3.58975C914.29 5.87663 913.916 7.62502 913.17 8.83494C912.436 10.0449 911.356 10.6498 909.93 10.6498C908.517 10.6498 907.437 10.0449 906.69 8.83494C905.943 7.62502 905.57 5.87663 905.57 3.58975C905.57 1.31617 905.943 -0.425578 906.69 -1.6355C907.437 -2.84541 908.517 -3.45038 909.93 -3.45038ZM906.99 3.58975C906.99 5.21184 907.137 6.48158 907.43 7.39899L911.87 -1.43607C911.403 -2.06097 910.756 -2.37343 909.93 -2.37343C909.01 -2.37343 908.29 -1.88148 907.77 -0.897593C907.25 0.0730001 906.99 1.56879 906.99 3.58975ZM909.93 9.5529C910.863 9.5529 911.59 9.06763 912.11 8.09704C912.63 7.11315 912.89 5.61072 912.89 3.58975C912.89 1.87459 912.723 0.545013 912.39 -0.398989L907.95 8.51584C908.43 9.20722 909.09 9.5529 909.93 9.5529Z" fill="url(#paint54_linear_175_1884)"/>
<path d="M909.93 19.3424C911.356 19.3424 912.436 19.9474 913.17 21.1573C913.916 22.3539 914.29 24.0957 914.29 26.3826C914.29 28.6694 913.916 30.4178 913.17 31.6277C912.436 32.8376 911.356 33.4426 909.93 33.4426C908.517 33.4426 907.437 32.8376 906.69 31.6277C905.943 30.4178 905.57 28.6694 905.57 26.3826C905.57 24.109 905.943 22.3672 906.69 21.1573C907.437 19.9474 908.517 19.3424 909.93 19.3424ZM906.99 26.3826C906.99 28.0046 907.137 29.2744 907.43 30.1918L911.87 21.3567C911.403 20.7318 910.756 20.4194 909.93 20.4194C909.01 20.4194 908.29 20.9113 907.77 21.8952C907.25 22.8658 906.99 24.3616 906.99 26.3826ZM909.93 32.3457C910.863 32.3457 911.59 31.8604 912.11 30.8898C912.63 29.9059 912.89 28.4035 912.89 26.3826C912.89 24.6674 912.723 23.3378 912.39 22.3938L907.95 31.3086C908.43 32 909.09 32.3457 909.93 32.3457Z" fill="url(#paint55_linear_175_1884)"/>
<path d="M911.13 54.979H914.07V56.036H906.45V54.979H909.85V43.7706L906.61 45.7051L906.05 44.8077L910.05 42.3347H911.13V54.979Z" fill="url(#paint56_linear_175_1884)"/>
<path d="M909.93 64.928C911.356 64.928 912.436 65.533 913.17 66.7429C913.916 67.9395 914.29 69.6813 914.29 71.9681C914.29 74.255 913.916 76.0034 913.17 77.2133C912.436 78.4233 911.356 79.0282 909.93 79.0282C908.517 79.0282 907.437 78.4233 906.69 77.2133C905.943 76.0034 905.57 74.255 905.57 71.9681C905.57 69.6946 905.943 67.9528 906.69 66.7429C907.437 65.533 908.517 64.928 909.93 64.928ZM906.99 71.9681C906.99 73.5902 907.137 74.86 907.43 75.7774L911.87 66.9423C911.403 66.3174 910.756 66.005 909.93 66.005C909.01 66.005 908.29 66.497 907.77 67.4808C907.25 68.4514 906.99 69.9472 906.99 71.9681ZM909.93 77.9313C910.863 77.9313 911.59 77.446 912.11 76.4754C912.63 75.4915 912.89 73.9891 912.89 71.9681C912.89 70.253 912.723 68.9234 912.39 67.9794L907.95 76.8942C908.43 77.5856 909.09 77.9313 909.93 77.9313Z" fill="url(#paint57_linear_175_1884)"/>
<path d="M911.13 100.565H914.07V101.622H906.45V100.565H909.85V89.3562L906.61 91.2908L906.05 90.3933L910.05 87.9203H911.13V100.565Z" fill="url(#paint58_linear_175_1884)"/>
<path d="M911.13 123.357H914.07V124.414H906.45V123.357H909.85V112.149L906.61 114.084L906.05 113.186L910.05 110.713H911.13V123.357Z" fill="url(#paint59_linear_175_1884)"/>
<path d="M947.07 -117.414C948.497 -117.414 949.577 -116.809 950.31 -115.6C951.057 -114.403 951.43 -112.661 951.43 -110.374C951.43 -108.087 951.057 -106.339 950.31 -105.129C949.577 -103.919 948.497 -103.314 947.07 -103.314C945.657 -103.314 944.577 -103.919 943.83 -105.129C943.084 -106.339 942.71 -108.087 942.71 -110.374C942.71 -112.648 943.084 -114.39 943.83 -115.6C944.577 -116.809 945.657 -117.414 947.07 -117.414ZM944.13 -110.374C944.13 -108.752 944.277 -107.482 944.57 -106.565L949.01 -115.4C948.543 -116.025 947.897 -116.337 947.07 -116.337C946.15 -116.337 945.43 -115.845 944.91 -114.862C944.39 -113.891 944.13 -112.395 944.13 -110.374ZM947.07 -104.411C948.003 -104.411 948.73 -104.896 949.25 -105.867C949.77 -106.851 950.03 -108.353 950.03 -110.374C950.03 -112.089 949.863 -113.419 949.53 -114.363L945.09 -105.448C945.57 -104.757 946.23 -104.411 947.07 -104.411Z" fill="url(#paint60_linear_175_1884)"/>
<path d="M948.27 -81.7779H951.21V-80.7208H943.59V-81.7779H946.99V-92.9862L943.75 -91.0517L943.19 -91.9491L947.19 -94.4222H948.27V-81.7779Z" fill="url(#paint61_linear_175_1884)"/>
<path d="M947.07 -71.8288C948.497 -71.8288 949.577 -71.2238 950.31 -70.0139C951.057 -68.8173 951.43 -67.0755 951.43 -64.7887C951.43 -62.5018 951.057 -60.7534 950.31 -59.5435C949.577 -58.3336 948.497 -57.7286 947.07 -57.7286C945.657 -57.7286 944.577 -58.3336 943.83 -59.5435C943.084 -60.7534 942.71 -62.5018 942.71 -64.7887C942.71 -67.0622 943.084 -68.804 943.83 -70.0139C944.577 -71.2238 945.657 -71.8288 947.07 -71.8288ZM944.13 -64.7887C944.13 -63.1666 944.277 -61.8968 944.57 -60.9794L949.01 -69.8145C948.543 -70.4394 947.897 -70.7518 947.07 -70.7518C946.15 -70.7518 945.43 -70.2599 944.91 -69.276C944.39 -68.3054 944.13 -66.8096 944.13 -64.7887ZM947.07 -58.8255C948.003 -58.8255 948.73 -59.3108 949.25 -60.2814C949.77 -61.2653 950.03 -62.7677 950.03 -64.7887C950.03 -66.5038 949.863 -67.8334 949.53 -68.7774L945.09 -59.8626C945.57 -59.1712 946.23 -58.8255 947.07 -58.8255Z" fill="url(#paint62_linear_175_1884)"/>
<path d="M947.07 -49.036C948.497 -49.036 949.577 -48.431 950.31 -47.2211C951.057 -46.0245 951.43 -44.2827 951.43 -41.9959C951.43 -39.709 951.057 -37.9606 950.31 -36.7507C949.577 -35.5407 948.497 -34.9358 947.07 -34.9358C945.657 -34.9358 944.577 -35.5407 943.83 -36.7507C943.084 -37.9606 942.71 -39.709 942.71 -41.9959C942.71 -44.2694 943.084 -46.0112 943.83 -47.2211C944.577 -48.431 945.657 -49.036 947.07 -49.036ZM944.13 -41.9959C944.13 -40.3738 944.277 -39.104 944.57 -38.1866L949.01 -47.0217C948.543 -47.6466 947.897 -47.959 947.07 -47.959C946.15 -47.959 945.43 -47.4671 944.91 -46.4832C944.39 -45.5126 944.13 -44.0168 944.13 -41.9959ZM947.07 -36.0327C948.003 -36.0327 948.73 -36.518 949.25 -37.4886C949.77 -38.4725 950.03 -39.9749 950.03 -41.9959C950.03 -43.711 949.863 -45.0406 949.53 -45.9846L945.09 -37.0698C945.57 -36.3784 946.23 -36.0327 947.07 -36.0327Z" fill="url(#paint63_linear_175_1884)"/>
<path d="M948.27 -13.3994H951.21V-12.3424H943.59V-13.3994H946.99V-24.6078L943.75 -22.6733L943.19 -23.5707L947.19 -26.0438H948.27V-13.3994Z" fill="url(#paint64_linear_175_1884)"/>
<path d="M947.07 -3.45038C948.497 -3.45038 949.577 -2.84541 950.31 -1.6355C951.057 -0.438873 951.43 1.30288 951.43 3.58975C951.43 5.87663 951.057 7.62502 950.31 8.83494C949.577 10.0449 948.497 10.6498 947.07 10.6498C945.657 10.6498 944.577 10.0449 943.83 8.83494C943.084 7.62502 942.71 5.87663 942.71 3.58975C942.71 1.31617 943.084 -0.425578 943.83 -1.6355C944.577 -2.84541 945.657 -3.45038 947.07 -3.45038ZM944.13 3.58975C944.13 5.21184 944.277 6.48158 944.57 7.39899L949.01 -1.43607C948.543 -2.06097 947.897 -2.37343 947.07 -2.37343C946.15 -2.37343 945.43 -1.88148 944.91 -0.897593C944.39 0.0730001 944.13 1.56879 944.13 3.58975ZM947.07 9.5529C948.003 9.5529 948.73 9.06763 949.25 8.09704C949.77 7.11315 950.03 5.61072 950.03 3.58975C950.03 1.87459 949.863 0.545013 949.53 -0.398989L945.09 8.51584C945.57 9.20722 946.23 9.5529 947.07 9.5529Z" fill="url(#paint65_linear_175_1884)"/>
<path d="M948.27 32.1862H951.21V33.2432H943.59V32.1862H946.99V20.9778L943.75 22.9123L943.19 22.0149L947.19 19.5418H948.27V32.1862Z" fill="url(#paint66_linear_175_1884)"/>
<path d="M947.07 42.1352C948.497 42.1352 949.577 42.7402 950.31 43.9501C951.057 45.1467 951.43 46.8885 951.43 49.1753C951.43 51.4622 951.057 53.2106 950.31 54.4205C949.577 55.6304 948.497 56.2354 947.07 56.2354C945.657 56.2354 944.577 55.6304 943.83 54.4205C943.084 53.2106 942.71 51.4622 942.71 49.1753C942.71 46.9018 943.084 45.16 943.83 43.9501C944.577 42.7402 945.657 42.1352 947.07 42.1352ZM944.13 49.1753C944.13 50.7974 944.277 52.0672 944.57 52.9846L949.01 44.1495C948.543 43.5246 947.897 43.2122 947.07 43.2122C946.15 43.2122 945.43 43.7041 944.91 44.688C944.39 45.6586 944.13 47.1544 944.13 49.1753ZM947.07 55.1385C948.003 55.1385 948.73 54.6532 949.25 53.6826C949.77 52.6987 950.03 51.1963 950.03 49.1753C950.03 47.4602 949.863 46.1306 949.53 45.1866L945.09 54.1014C945.57 54.7928 946.23 55.1385 947.07 55.1385Z" fill="url(#paint67_linear_175_1884)"/>
<path d="M947.07 64.928C948.497 64.928 949.577 65.533 950.31 66.7429C951.057 67.9395 951.43 69.6813 951.43 71.9681C951.43 74.255 951.057 76.0034 950.31 77.2133C949.577 78.4233 948.497 79.0282 947.07 79.0282C945.657 79.0282 944.577 78.4233 943.83 77.2133C943.084 76.0034 942.71 74.255 942.71 71.9681C942.71 69.6946 943.084 67.9528 943.83 66.7429C944.577 65.533 945.657 64.928 947.07 64.928ZM944.13 71.9681C944.13 73.5902 944.277 74.86 944.57 75.7774L949.01 66.9423C948.543 66.3174 947.897 66.005 947.07 66.005C946.15 66.005 945.43 66.497 944.91 67.4808C944.39 68.4514 944.13 69.9472 944.13 71.9681ZM947.07 77.9313C948.003 77.9313 948.73 77.446 949.25 76.4754C949.77 75.4915 950.03 73.9891 950.03 71.9681C950.03 70.253 949.863 68.9234 949.53 67.9794L945.09 76.8942C945.57 77.5856 946.23 77.9313 947.07 77.9313Z" fill="url(#paint68_linear_175_1884)"/>
<path d="M948.27 100.565H951.21V101.622H943.59V100.565H946.99V89.3562L943.75 91.2908L943.19 90.3933L947.19 87.9203H948.27V100.565Z" fill="url(#paint69_linear_175_1884)"/>
<path d="M947.07 110.514C948.497 110.514 949.577 111.119 950.31 112.329C951.057 113.525 951.43 115.267 951.43 117.554C951.43 119.841 951.057 121.589 950.31 122.799C949.577 124.009 948.497 124.614 947.07 124.614C945.657 124.614 944.577 124.009 943.83 122.799C943.084 121.589 942.71 119.841 942.71 117.554C942.71 115.28 943.084 113.538 943.83 112.329C944.577 111.119 945.657 110.514 947.07 110.514ZM944.13 117.554C944.13 119.176 944.277 120.446 944.57 121.363L949.01 112.528C948.543 111.903 947.897 111.591 947.07 111.591C946.15 111.591 945.43 112.083 944.91 113.066C944.39 114.037 944.13 115.533 944.13 117.554ZM947.07 123.517C948.003 123.517 948.73 123.032 949.25 122.061C949.77 121.077 950.03 119.575 950.03 117.554C950.03 115.839 949.863 114.509 949.53 113.565L945.09 122.48C945.57 123.171 946.23 123.517 947.07 123.517Z" fill="url(#paint70_linear_175_1884)"/>
<path d="M948.27 146.15H951.21V147.207H943.59V146.15H946.99V134.942L943.75 136.876L943.19 135.979L947.19 133.506H948.27V146.15Z" fill="url(#paint71_linear_175_1884)"/>
<path d="M948.27 168.943H951.21V170H943.59V168.943H946.99V157.735L943.75 159.669L943.19 158.772L947.19 156.299H948.27V168.943Z" fill="url(#paint72_linear_175_1884)"/>
<path d="M891.36 -94.6216C892.786 -94.6216 893.866 -94.0166 894.599 -92.8067C895.346 -91.6101 895.719 -89.8683 895.719 -87.5815C895.719 -85.2946 895.346 -83.5462 894.599 -82.3363C893.866 -81.1264 892.786 -80.5214 891.36 -80.5214C889.946 -80.5214 888.867 -81.1264 888.12 -82.3363C887.373 -83.5462 887 -85.2946 887 -87.5815C887 -89.855 887.373 -91.5968 888.12 -92.8067C888.867 -94.0166 889.946 -94.6216 891.36 -94.6216ZM888.42 -87.5815C888.42 -85.9594 888.567 -84.6896 888.86 -83.7722L893.3 -92.6073C892.833 -93.2322 892.186 -93.5446 891.36 -93.5446C890.44 -93.5446 889.72 -93.0527 889.2 -92.0688C888.68 -91.0982 888.42 -89.6024 888.42 -87.5815ZM891.36 -81.6183C892.293 -81.6183 893.02 -82.1036 893.54 -83.0742C894.06 -84.0581 894.319 -85.5605 894.319 -87.5815C894.319 -89.2966 894.153 -90.6262 893.82 -91.5702L889.38 -82.6554C889.86 -81.964 890.52 -81.6183 891.36 -81.6183Z" fill="url(#paint73_linear_175_1884)"/>
<path d="M891.36 -71.8288C892.786 -71.8288 893.866 -71.2238 894.599 -70.0139C895.346 -68.8173 895.719 -67.0755 895.719 -64.7887C895.719 -62.5018 895.346 -60.7534 894.599 -59.5435C893.866 -58.3336 892.786 -57.7286 891.36 -57.7286C889.946 -57.7286 888.867 -58.3336 888.12 -59.5435C887.373 -60.7534 887 -62.5018 887 -64.7887C887 -67.0622 887.373 -68.804 888.12 -70.0139C888.867 -71.2238 889.946 -71.8288 891.36 -71.8288ZM888.42 -64.7887C888.42 -63.1666 888.567 -61.8968 888.86 -60.9794L893.3 -69.8145C892.833 -70.4394 892.186 -70.7518 891.36 -70.7518C890.44 -70.7518 889.72 -70.2599 889.2 -69.276C888.68 -68.3054 888.42 -66.8096 888.42 -64.7887ZM891.36 -58.8255C892.293 -58.8255 893.02 -59.3108 893.54 -60.2814C894.06 -61.2653 894.319 -62.7677 894.319 -64.7887C894.319 -66.5038 894.153 -67.8334 893.82 -68.7774L889.38 -59.8626C889.86 -59.1712 890.52 -58.8255 891.36 -58.8255Z" fill="url(#paint74_linear_175_1884)"/>
<path d="M892.56 -36.1922H895.499V-35.1352H887.88V-36.1922H891.28V-47.4006L888.04 -45.4661L887.48 -46.3635L891.48 -48.8365H892.56V-36.1922Z" fill="url(#paint75_linear_175_1884)"/>
<path d="M891.36 -26.2432C892.786 -26.2432 893.866 -25.6382 894.599 -24.4283C895.346 -23.2317 895.719 -21.4899 895.719 -19.2031C895.719 -16.9162 895.346 -15.1678 894.599 -13.9579C893.866 -12.7479 892.786 -12.143 891.36 -12.143C889.946 -12.143 888.867 -12.7479 888.12 -13.9579C887.373 -15.1678 887 -16.9162 887 -19.2031C887 -21.4766 887.373 -23.2184 888.12 -24.4283C888.867 -25.6382 889.946 -26.2432 891.36 -26.2432ZM888.42 -19.2031C888.42 -17.581 888.567 -16.3112 888.86 -15.3938L893.3 -24.2289C892.833 -24.8538 892.186 -25.1662 891.36 -25.1662C890.44 -25.1662 889.72 -24.6743 889.2 -23.6904C888.68 -22.7198 888.42 -21.224 888.42 -19.2031ZM891.36 -13.2399C892.293 -13.2399 893.02 -13.7252 893.54 -14.6958C894.06 -15.6797 894.319 -17.1821 894.319 -19.2031C894.319 -20.9182 894.153 -22.2478 893.82 -23.1918L889.38 -14.277C889.86 -13.5856 890.52 -13.2399 891.36 -13.2399Z" fill="url(#paint76_linear_175_1884)"/>
<path d="M892.56 9.39337H895.499V10.4504H887.88V9.39337H891.28V-1.81499L888.04 0.119532L887.48 -0.777926L891.48 -3.25094H892.56V9.39337Z" fill="url(#paint77_linear_175_1884)"/>
<path d="M892.56 32.1862H895.499V33.2432H887.88V32.1862H891.28V20.9778L888.04 22.9123L887.48 22.0149L891.48 19.5418H892.56V32.1862Z" fill="url(#paint78_linear_175_1884)"/>
<path d="M929.7 -127.363H932.64V-126.306H925.02V-127.363H928.42V-138.572L925.18 -136.637L924.62 -137.535L928.62 -140.008H929.7V-127.363Z" fill="url(#paint79_linear_175_1884)"/>
<path d="M928.5 -117.414C929.927 -117.414 931.006 -116.809 931.74 -115.6C932.486 -114.403 932.86 -112.661 932.86 -110.374C932.86 -108.087 932.486 -106.339 931.74 -105.129C931.006 -103.919 929.927 -103.314 928.5 -103.314C927.087 -103.314 926.007 -103.919 925.26 -105.129C924.514 -106.339 924.14 -108.087 924.14 -110.374C924.14 -112.648 924.514 -114.39 925.26 -115.6C926.007 -116.809 927.087 -117.414 928.5 -117.414ZM925.56 -110.374C925.56 -108.752 925.707 -107.482 926 -106.565L930.44 -115.4C929.973 -116.025 929.327 -116.337 928.5 -116.337C927.58 -116.337 926.86 -115.845 926.34 -114.862C925.82 -113.891 925.56 -112.395 925.56 -110.374ZM928.5 -104.411C929.433 -104.411 930.16 -104.896 930.68 -105.867C931.2 -106.851 931.46 -108.353 931.46 -110.374C931.46 -112.089 931.293 -113.419 930.96 -114.363L926.52 -105.448C927 -104.757 927.66 -104.411 928.5 -104.411Z" fill="url(#paint80_linear_175_1884)"/>
<path d="M929.7 -81.7779H932.64V-80.7208H925.02V-81.7779H928.42V-92.9862L925.18 -91.0517L924.62 -91.9491L928.62 -94.4222H929.7V-81.7779Z" fill="url(#paint81_linear_175_1884)"/>
<path d="M929.7 -58.985H932.64V-57.928H925.02V-58.985H928.42V-70.1934L925.18 -68.2589L924.62 -69.1563L928.62 -71.6294H929.7V-58.985Z" fill="url(#paint82_linear_175_1884)"/>
<path d="M928.5 -49.036C929.927 -49.036 931.006 -48.431 931.74 -47.2211C932.486 -46.0245 932.86 -44.2827 932.86 -41.9959C932.86 -39.709 932.486 -37.9606 931.74 -36.7507C931.006 -35.5407 929.927 -34.9358 928.5 -34.9358C927.087 -34.9358 926.007 -35.5407 925.26 -36.7507C924.514 -37.9606 924.14 -39.709 924.14 -41.9959C924.14 -44.2694 924.514 -46.0112 925.26 -47.2211C926.007 -48.431 927.087 -49.036 928.5 -49.036ZM925.56 -41.9959C925.56 -40.3738 925.707 -39.104 926 -38.1866L930.44 -47.0217C929.973 -47.6466 929.327 -47.959 928.5 -47.959C927.58 -47.959 926.86 -47.4671 926.34 -46.4832C925.82 -45.5126 925.56 -44.0168 925.56 -41.9959ZM928.5 -36.0327C929.433 -36.0327 930.16 -36.518 930.68 -37.4886C931.2 -38.4725 931.46 -39.9749 931.46 -41.9959C931.46 -43.711 931.293 -45.0406 930.96 -45.9846L926.52 -37.0698C927 -36.3784 927.66 -36.0327 928.5 -36.0327Z" fill="url(#paint83_linear_175_1884)"/>
<path d="M929.7 -13.3994H932.64V-12.3424H925.02V-13.3994H928.42V-24.6078L925.18 -22.6733L924.62 -23.5707L928.62 -26.0438H929.7V-13.3994Z" fill="url(#paint84_linear_175_1884)"/>
<path d="M929.7 9.39337H932.64V10.4504H925.02V9.39337H928.42V-1.81499L925.18 0.119532L924.62 -0.777926L928.62 -3.25094H929.7V9.39337Z" fill="url(#paint85_linear_175_1884)"/>
<path d="M928.5 19.3424C929.927 19.3424 931.006 19.9474 931.74 21.1573C932.486 22.3539 932.86 24.0957 932.86 26.3826C932.86 28.6694 932.486 30.4178 931.74 31.6277C931.006 32.8376 929.927 33.4426 928.5 33.4426C927.087 33.4426 926.007 32.8376 925.26 31.6277C924.514 30.4178 924.14 28.6694 924.14 26.3826C924.14 24.109 924.514 22.3672 925.26 21.1573C926.007 19.9474 927.087 19.3424 928.5 19.3424ZM925.56 26.3826C925.56 28.0046 925.707 29.2744 926 30.1918L930.44 21.3567C929.973 20.7318 929.327 20.4194 928.5 20.4194C927.58 20.4194 926.86 20.9113 926.34 21.8952C925.82 22.8658 925.56 24.3616 925.56 26.3826ZM928.5 32.3457C929.433 32.3457 930.16 31.8604 930.68 30.8898C931.2 29.9059 931.46 28.4035 931.46 26.3826C931.46 24.6674 931.293 23.3378 930.96 22.3938L926.52 31.3086C927 32 927.66 32.3457 928.5 32.3457Z" fill="url(#paint86_linear_175_1884)"/>
<path d="M929.7 54.979H932.64V56.036H925.02V54.979H928.42V43.7706L925.18 45.7051L924.62 44.8077L928.62 42.3347H929.7V54.979Z" fill="url(#paint87_linear_175_1884)"/>
<path d="M928.5 64.928C929.927 64.928 931.006 65.533 931.74 66.7429C932.486 67.9395 932.86 69.6813 932.86 71.9681C932.86 74.255 932.486 76.0034 931.74 77.2133C931.006 78.4233 929.927 79.0282 928.5 79.0282C927.087 79.0282 926.007 78.4233 925.26 77.2133C924.514 76.0034 924.14 74.255 924.14 71.9681C924.14 69.6946 924.514 67.9528 925.26 66.7429C926.007 65.533 927.087 64.928 928.5 64.928ZM925.56 71.9681C925.56 73.5902 925.707 74.86 926 75.7774L930.44 66.9423C929.973 66.3174 929.327 66.005 928.5 66.005C927.58 66.005 926.86 66.497 926.34 67.4808C925.82 68.4514 925.56 69.9472 925.56 71.9681ZM928.5 77.9313C929.433 77.9313 930.16 77.446 930.68 76.4754C931.2 75.4915 931.46 73.9891 931.46 71.9681C931.46 70.253 931.293 68.9234 930.96 67.9794L926.52 76.8942C927 77.5856 927.66 77.9313 928.5 77.9313Z" fill="url(#paint88_linear_175_1884)"/>
<path d="M965.64 -140.207C967.067 -140.207 968.147 -139.602 968.88 -138.392C969.627 -137.196 970 -135.454 970 -133.167C970 -130.88 969.627 -129.132 968.88 -127.922C968.147 -126.712 967.067 -126.107 965.64 -126.107C964.227 -126.107 963.147 -126.712 962.401 -127.922C961.654 -129.132 961.281 -130.88 961.281 -133.167C961.281 -135.441 961.654 -137.182 962.401 -138.392C963.147 -139.602 964.227 -140.207 965.64 -140.207ZM962.7 -133.167C962.7 -131.545 962.847 -130.275 963.14 -129.358L967.58 -138.193C967.114 -138.818 966.467 -139.13 965.64 -139.13C964.72 -139.13 964 -138.638 963.48 -137.654C962.96 -136.684 962.7 -135.188 962.7 -133.167ZM965.64 -127.204C966.574 -127.204 967.3 -127.689 967.82 -128.66C968.34 -129.644 968.6 -131.146 968.6 -133.167C968.6 -134.882 968.433 -136.212 968.1 -137.156L963.66 -128.241C964.14 -127.55 964.8 -127.204 965.64 -127.204Z" fill="url(#paint89_linear_175_1884)"/>
<path d="M966.84 -104.571H969.78V-103.514H962.161V-104.571H965.56V-115.779L962.321 -113.844L961.761 -114.742L965.76 -117.215H966.84V-104.571Z" fill="url(#paint90_linear_175_1884)"/>
<path d="M966.84 -81.7779H969.78V-80.7208H962.161V-81.7779H965.56V-92.9862L962.321 -91.0517L961.761 -91.9491L965.76 -94.4222H966.84V-81.7779Z" fill="url(#paint91_linear_175_1884)"/>
<path d="M965.64 -71.8288C967.067 -71.8288 968.147 -71.2238 968.88 -70.0139C969.627 -68.8173 970 -67.0755 970 -64.7887C970 -62.5018 969.627 -60.7534 968.88 -59.5435C968.147 -58.3336 967.067 -57.7286 965.64 -57.7286C964.227 -57.7286 963.147 -58.3336 962.401 -59.5435C961.654 -60.7534 961.281 -62.5018 961.281 -64.7887C961.281 -67.0622 961.654 -68.804 962.401 -70.0139C963.147 -71.2238 964.227 -71.8288 965.64 -71.8288ZM962.7 -64.7887C962.7 -63.1666 962.847 -61.8968 963.14 -60.9794L967.58 -69.8145C967.114 -70.4394 966.467 -70.7518 965.64 -70.7518C964.72 -70.7518 964 -70.2599 963.48 -69.276C962.96 -68.3054 962.7 -66.8096 962.7 -64.7887ZM965.64 -58.8255C966.574 -58.8255 967.3 -59.3108 967.82 -60.2814C968.34 -61.2653 968.6 -62.7677 968.6 -64.7887C968.6 -66.5038 968.433 -67.8334 968.1 -68.7774L963.66 -59.8626C964.14 -59.1712 964.8 -58.8255 965.64 -58.8255Z" fill="url(#paint92_linear_175_1884)"/>
<path d="M965.64 -49.036C967.067 -49.036 968.147 -48.431 968.88 -47.2211C969.627 -46.0245 970 -44.2827 970 -41.9959C970 -39.709 969.627 -37.9606 968.88 -36.7507C968.147 -35.5407 967.067 -34.9358 965.64 -34.9358C964.227 -34.9358 963.147 -35.5407 962.401 -36.7507C961.654 -37.9606 961.281 -39.709 961.281 -41.9959C961.281 -44.2694 961.654 -46.0112 962.401 -47.2211C963.147 -48.431 964.227 -49.036 965.64 -49.036ZM962.7 -41.9959C962.7 -40.3738 962.847 -39.104 963.14 -38.1866L967.58 -47.0217C967.114 -47.6466 966.467 -47.959 965.64 -47.959C964.72 -47.959 964 -47.4671 963.48 -46.4832C962.96 -45.5126 962.7 -44.0168 962.7 -41.9959ZM965.64 -36.0327C966.574 -36.0327 967.3 -36.518 967.82 -37.4886C968.34 -38.4725 968.6 -39.9749 968.6 -41.9959C968.6 -43.711 968.433 -45.0406 968.1 -45.9846L963.66 -37.0698C964.14 -36.3784 964.8 -36.0327 965.64 -36.0327Z" fill="url(#paint93_linear_175_1884)"/>
</g>
</g>
<defs>
<filter id="filter0_f_175_1884" x="-568.19" y="-849.19" width="2141.38" height="1500.38" filterUnits="userSpaceOnUse" color-interpolation-filters="sRGB">
<feFlood flood-opacity="0" result="BackgroundImageFix"/>
<feBlend mode="normal" in="SourceGraphic" in2="BackgroundImageFix" result="shape"/>
<feGaussianBlur stdDeviation="200.095" result="effect1_foregroundBlur_175_1884"/>
</filter>
<linearGradient id="paint0_linear_175_1884" x1="42.5" y1="137" x2="42.5" y2="448.381" gradientUnits="userSpaceOnUse">
<stop stop-color="#F7DD43"/>
<stop offset="1" stop-color="#F7DD43" stop-opacity="0"/>
</linearGradient>
<linearGradient id="paint1_linear_175_1884" x1="42.5" y1="137" x2="42.5" y2="448.381" gradientUnits="userSpaceOnUse">
<stop stop-color="#F7DD43"/>
<stop offset="1" stop-color="#F7DD43" stop-opacity="0"/>
</linearGradient>
<linearGradient id="paint2_linear_175_1884" x1="42.5" y1="137" x2="42.5" y2="448.381" gradientUnits="userSpaceOnUse">
<stop stop-color="#F7DD43"/>
<stop offset="1" stop-color="#F7DD43" stop-opacity="0"/>
</linearGradient>
<linearGradient id="paint3_linear_175_1884" x1="42.5" y1="137" x2="42.5" y2="448.381" gradientUnits="userSpaceOnUse">
<stop stop-color="#F7DD43"/>
<stop offset="1" stop-color="#F7DD43" stop-opacity="0"/>
</linearGradient>
<linearGradient id="paint4_linear_175_1884" x1="42.5" y1="137" x2="42.5" y2="448.381" gradientUnits="userSpaceOnUse">
<stop stop-color="#F7DD43"/>
<stop offset="1" stop-color="#F7DD43" stop-opacity="0"/>
</linearGradient>
<linearGradient id="paint5_linear_175_1884" x1="42.5" y1="137" x2="42.5" y2="448.381" gradientUnits="userSpaceOnUse">
<stop stop-color="#F7DD43"/>
<stop offset="1" stop-color="#F7DD43" stop-opacity="0"/>
</linearGradient>
<linearGradient id="paint6_linear_175_1884" x1="42.5" y1="137" x2="42.5" y2="448.381" gradientUnits="userSpaceOnUse">
<stop stop-color="#F7DD43"/>
<stop offset="1" stop-color="#F7DD43" stop-opacity="0"/>
</linearGradient>
<linearGradient id="paint7_linear_175_1884" x1="42.5" y1="137" x2="42.5" y2="448.381" gradientUnits="userSpaceOnUse">
<stop stop-color="#F7DD43"/>
<stop offset="1" stop-color="#F7DD43" stop-opacity="0"/>
</linearGradient>
<linearGradient id="paint8_linear_175_1884" x1="42.5" y1="137" x2="42.5" y2="448.381" gradientUnits="userSpaceOnUse">
<stop stop-color="#F7DD43"/>
<stop offset="1" stop-color="#F7DD43" stop-opacity="0"/>
</linearGradient>
<linearGradient id="paint9_linear_175_1884" x1="42.5" y1="137" x2="42.5" y2="448.381" gradientUnits="userSpaceOnUse">
<stop stop-color="#F7DD43"/>
<stop offset="1" stop-color="#F7DD43" stop-opacity="0"/>
</linearGradient>
<linearGradient id="paint10_linear_175_1884" x1="42.5" y1="137" x2="42.5" y2="448.381" gradientUnits="userSpaceOnUse">
<stop stop-color="#F7DD43"/>
<stop offset="1" stop-color="#F7DD43" stop-opacity="0"/>
</linearGradient>
<linearGradient id="paint11_linear_175_1884" x1="42.5" y1="137" x2="42.5" y2="448.381" gradientUnits="userSpaceOnUse">
<stop stop-color="#F7DD43"/>
<stop offset="1" stop-color="#F7DD43" stop-opacity="0"/>
</linearGradient>
<linearGradient id="paint12_linear_175_1884" x1="42.5" y1="137" x2="42.5" y2="448.381" gradientUnits="userSpaceOnUse">
<stop stop-color="#F7DD43"/>
<stop offset="1" stop-color="#F7DD43" stop-opacity="0"/>
</linearGradient>
<linearGradient id="paint13_linear_175_1884" x1="42.5" y1="137" x2="42.5" y2="448.381" gradientUnits="userSpaceOnUse">
<stop stop-color="#F7DD43"/>
<stop offset="1" stop-color="#F7DD43" stop-opacity="0"/>
</linearGradient>
<linearGradient id="paint14_linear_175_1884" x1="42.5" y1="137" x2="42.5" y2="448.381" gradientUnits="userSpaceOnUse">
<stop stop-color="#F7DD43"/>
<stop offset="1" stop-color="#F7DD43" stop-opacity="0"/>
</linearGradient>
<linearGradient id="paint15_linear_175_1884" x1="42.5" y1="137" x2="42.5" y2="448.381" gradientUnits="userSpaceOnUse">
<stop stop-color="#F7DD43"/>
<stop offset="1" stop-color="#F7DD43" stop-opacity="0"/>
</linearGradient>
<linearGradient id="paint16_linear_175_1884" x1="42.5" y1="137" x2="42.5" y2="448.381" gradientUnits="userSpaceOnUse">
<stop stop-color="#F7DD43"/>
<stop offset="1" stop-color="#F7DD43" stop-opacity="0"/>
</linearGradient>
<linearGradient id="paint17_linear_175_1884" x1="42.5" y1="137" x2="42.5" y2="448.381" gradientUnits="userSpaceOnUse">
<stop stop-color="#F7DD43"/>
<stop offset="1" stop-color="#F7DD43" stop-opacity="0"/>
</linearGradient>
<linearGradient id="paint18_linear_175_1884" x1="42.5" y1="137" x2="42.5" y2="448.381" gradientUnits="userSpaceOnUse">
<stop stop-color="#F7DD43"/>
<stop offset="1" stop-color="#F7DD43" stop-opacity="0"/>
</linearGradient>
<linearGradient id="paint19_linear_175_1884" x1="42.5" y1="137" x2="42.5" y2="448.381" gradientUnits="userSpaceOnUse">
<stop stop-color="#F7DD43"/>
<stop offset="1" stop-color="#F7DD43" stop-opacity="0"/>
</linearGradient>
<linearGradient id="paint20_linear_175_1884" x1="42.5" y1="137" x2="42.5" y2="448.381" gradientUnits="userSpaceOnUse">
<stop stop-color="#F7DD43"/>
<stop offset="1" stop-color="#F7DD43" stop-opacity="0"/>
</linearGradient>
<linearGradient id="paint21_linear_175_1884" x1="42.5" y1="137" x2="42.5" y2="448.381" gradientUnits="userSpaceOnUse">
<stop stop-color="#F7DD43"/>
<stop offset="1" stop-color="#F7DD43" stop-opacity="0"/>
</linearGradient>
<linearGradient id="paint22_linear_175_1884" x1="42.5" y1="137" x2="42.5" y2="448.381" gradientUnits="userSpaceOnUse">
<stop stop-color="#F7DD43"/>
<stop offset="1" stop-color="#F7DD43" stop-opacity="0"/>
</linearGradient>
<linearGradient id="paint23_linear_175_1884" x1="42.5" y1="137" x2="42.5" y2="448.381" gradientUnits="userSpaceOnUse">
<stop stop-color="#F7DD43"/>
<stop offset="1" stop-color="#F7DD43" stop-opacity="0"/>
</linearGradient>
<linearGradient id="paint24_linear_175_1884" x1="42.5" y1="137" x2="42.5" y2="448.381" gradientUnits="userSpaceOnUse">
<stop stop-color="#F7DD43"/>
<stop offset="1" stop-color="#F7DD43" stop-opacity="0"/>
</linearGradient>
<linearGradient id="paint25_linear_175_1884" x1="42.5" y1="137" x2="42.5" y2="448.381" gradientUnits="userSpaceOnUse">
<stop stop-color="#F7DD43"/>
<stop offset="1" stop-color="#F7DD43" stop-opacity="0"/>
</linearGradient>
<linearGradient id="paint26_linear_175_1884" x1="42.5" y1="137" x2="42.5" y2="448.381" gradientUnits="userSpaceOnUse">
<stop stop-color="#F7DD43"/>
<stop offset="1" stop-color="#F7DD43" stop-opacity="0"/>
</linearGradient>
<linearGradient id="paint27_linear_175_1884" x1="42.5" y1="137" x2="42.5" y2="448.381" gradientUnits="userSpaceOnUse">
<stop stop-color="#F7DD43"/>
<stop offset="1" stop-color="#F7DD43" stop-opacity="0"/>
</linearGradient>
<linearGradient id="paint28_linear_175_1884" x1="42.5" y1="137" x2="42.5" y2="448.381" gradientUnits="userSpaceOnUse">
<stop stop-color="#F7DD43"/>
<stop offset="1" stop-color="#F7DD43" stop-opacity="0"/>
</linearGradient>
<linearGradient id="paint29_linear_175_1884" x1="42.5" y1="137" x2="42.5" y2="448.381" gradientUnits="userSpaceOnUse">
<stop stop-color="#F7DD43"/>
<stop offset="1" stop-color="#F7DD43" stop-opacity="0"/>
</linearGradient>
<linearGradient id="paint30_linear_175_1884" x1="42.5" y1="137" x2="42.5" y2="448.381" gradientUnits="userSpaceOnUse">
<stop stop-color="#F7DD43"/>
<stop offset="1" stop-color="#F7DD43" stop-opacity="0"/>
</linearGradient>
<linearGradient id="paint31_linear_175_1884" x1="42.5" y1="137" x2="42.5" y2="448.381" gradientUnits="userSpaceOnUse">
<stop stop-color="#F7DD43"/>
<stop offset="1" stop-color="#F7DD43" stop-opacity="0"/>
</linearGradient>
<linearGradient id="paint32_linear_175_1884" x1="42.5" y1="137" x2="42.5" y2="448.381" gradientUnits="userSpaceOnUse">
<stop stop-color="#F7DD43"/>
<stop offset="1" stop-color="#F7DD43" stop-opacity="0"/>
</linearGradient>
<linearGradient id="paint33_linear_175_1884" x1="42.5" y1="137" x2="42.5" y2="448.381" gradientUnits="userSpaceOnUse">
<stop stop-color="#F7DD43"/>
<stop offset="1" stop-color="#F7DD43" stop-opacity="0"/>
</linearGradient>
<linearGradient id="paint34_linear_175_1884" x1="42.5" y1="137" x2="42.5" y2="448.381" gradientUnits="userSpaceOnUse">
<stop stop-color="#F7DD43"/>
<stop offset="1" stop-color="#F7DD43" stop-opacity="0"/>
</linearGradient>
<linearGradient id="paint35_linear_175_1884" x1="42.5" y1="137" x2="42.5" y2="448.381" gradientUnits="userSpaceOnUse">
<stop stop-color="#F7DD43"/>
<stop offset="1" stop-color="#F7DD43" stop-opacity="0"/>
</linearGradient>
<linearGradient id="paint36_linear_175_1884" x1="42.5" y1="137" x2="42.5" y2="448.381" gradientUnits="userSpaceOnUse">
<stop stop-color="#F7DD43"/>
<stop offset="1" stop-color="#F7DD43" stop-opacity="0"/>
</linearGradient>
<linearGradient id="paint37_linear_175_1884" x1="42.5" y1="137" x2="42.5" y2="448.381" gradientUnits="userSpaceOnUse">
<stop stop-color="#F7DD43"/>
<stop offset="1" stop-color="#F7DD43" stop-opacity="0"/>
</linearGradient>
<linearGradient id="paint38_linear_175_1884" x1="42.5" y1="137" x2="42.5" y2="448.381" gradientUnits="userSpaceOnUse">
<stop stop-color="#F7DD43"/>
<stop offset="1" stop-color="#F7DD43" stop-opacity="0"/>
</linearGradient>
<linearGradient id="paint39_linear_175_1884" x1="42.5" y1="137" x2="42.5" y2="448.381" gradientUnits="userSpaceOnUse">
<stop stop-color="#F7DD43"/>
<stop offset="1" stop-color="#F7DD43" stop-opacity="0"/>
</linearGradient>
<linearGradient id="paint40_linear_175_1884" x1="42.5" y1="137" x2="42.5" y2="448.381" gradientUnits="userSpaceOnUse">
<stop stop-color="#F7DD43"/>
<stop offset="1" stop-color="#F7DD43" stop-opacity="0"/>
</linearGradient>
<linearGradient id="paint41_linear_175_1884" x1="42.5" y1="137" x2="42.5" y2="448.381" gradientUnits="userSpaceOnUse">
<stop stop-color="#F7DD43"/>
<stop offset="1" stop-color="#F7DD43" stop-opacity="0"/>
</linearGradient>
<linearGradient id="paint42_linear_175_1884" x1="42.5" y1="137" x2="42.5" y2="448.381" gradientUnits="userSpaceOnUse">
<stop stop-color="#F7DD43"/>
<stop offset="1" stop-color="#F7DD43" stop-opacity="0"/>
</linearGradient>
<linearGradient id="paint43_linear_175_1884" x1="42.5" y1="137" x2="42.5" y2="448.381" gradientUnits="userSpaceOnUse">
<stop stop-color="#F7DD43"/>
<stop offset="1" stop-color="#F7DD43" stop-opacity="0"/>
</linearGradient>
<linearGradient id="paint44_linear_175_1884" x1="42.5" y1="137" x2="42.5" y2="448.381" gradientUnits="userSpaceOnUse">
<stop stop-color="#F7DD43"/>
<stop offset="1" stop-color="#F7DD43" stop-opacity="0"/>
</linearGradient>
<linearGradient id="paint45_linear_175_1884" x1="42.5" y1="137" x2="42.5" y2="448.381" gradientUnits="userSpaceOnUse">
<stop stop-color="#F7DD43"/>
<stop offset="1" stop-color="#F7DD43" stop-opacity="0"/>
</linearGradient>
<linearGradient id="paint46_linear_175_1884" x1="42.5" y1="137" x2="42.5" y2="448.381" gradientUnits="userSpaceOnUse">
<stop stop-color="#F7DD43"/>
<stop offset="1" stop-color="#F7DD43" stop-opacity="0"/>
</linearGradient>
<linearGradient id="paint47_linear_175_1884" x1="928.5" y1="-163" x2="928.5" y2="135.818" gradientUnits="userSpaceOnUse">
<stop stop-color="#F7DD43"/>
<stop offset="1" stop-color="#F7DD43" stop-opacity="0"/>
</linearGradient>
<linearGradient id="paint48_linear_175_1884" x1="928.5" y1="-163" x2="928.5" y2="135.818" gradientUnits="userSpaceOnUse">
<stop stop-color="#F7DD43"/>
<stop offset="1" stop-color="#F7DD43" stop-opacity="0"/>
</linearGradient>
<linearGradient id="paint49_linear_175_1884" x1="928.5" y1="-163" x2="928.5" y2="135.818" gradientUnits="userSpaceOnUse">
<stop stop-color="#F7DD43"/>
<stop offset="1" stop-color="#F7DD43" stop-opacity="0"/>
</linearGradient>
<linearGradient id="paint50_linear_175_1884" x1="928.5" y1="-163" x2="928.5" y2="135.818" gradientUnits="userSpaceOnUse">
<stop stop-color="#F7DD43"/>
<stop offset="1" stop-color="#F7DD43" stop-opacity="0"/>
</linearGradient>
<linearGradient id="paint51_linear_175_1884" x1="928.5" y1="-163" x2="928.5" y2="135.818" gradientUnits="userSpaceOnUse">
<stop stop-color="#F7DD43"/>
<stop offset="1" stop-color="#F7DD43" stop-opacity="0"/>
</linearGradient>
<linearGradient id="paint52_linear_175_1884" x1="928.5" y1="-163" x2="928.5" y2="135.818" gradientUnits="userSpaceOnUse">
<stop stop-color="#F7DD43"/>
<stop offset="1" stop-color="#F7DD43" stop-opacity="0"/>
</linearGradient>
<linearGradient id="paint53_linear_175_1884" x1="928.5" y1="-163" x2="928.5" y2="135.818" gradientUnits="userSpaceOnUse">
<stop stop-color="#F7DD43"/>
<stop offset="1" stop-color="#F7DD43" stop-opacity="0"/>
</linearGradient>
<linearGradient id="paint54_linear_175_1884" x1="928.5" y1="-163" x2="928.5" y2="135.818" gradientUnits="userSpaceOnUse">
<stop stop-color="#F7DD43"/>
<stop offset="1" stop-color="#F7DD43" stop-opacity="0"/>
</linearGradient>
<linearGradient id="paint55_linear_175_1884" x1="928.5" y1="-163" x2="928.5" y2="135.818" gradientUnits="userSpaceOnUse">
<stop stop-color="#F7DD43"/>
<stop offset="1" stop-color="#F7DD43" stop-opacity="0"/>
</linearGradient>
<linearGradient id="paint56_linear_175_1884" x1="928.5" y1="-163" x2="928.5" y2="135.818" gradientUnits="userSpaceOnUse">
<stop stop-color="#F7DD43"/>
<stop offset="1" stop-color="#F7DD43" stop-opacity="0"/>
</linearGradient>
<linearGradient id="paint57_linear_175_1884" x1="928.5" y1="-163" x2="928.5" y2="135.818" gradientUnits="userSpaceOnUse">
<stop stop-color="#F7DD43"/>
<stop offset="1" stop-color="#F7DD43" stop-opacity="0"/>
</linearGradient>
<linearGradient id="paint58_linear_175_1884" x1="928.5" y1="-163" x2="928.5" y2="135.818" gradientUnits="userSpaceOnUse">
<stop stop-color="#F7DD43"/>
<stop offset="1" stop-color="#F7DD43" stop-opacity="0"/>
</linearGradient>
<linearGradient id="paint59_linear_175_1884" x1="928.5" y1="-163" x2="928.5" y2="135.818" gradientUnits="userSpaceOnUse">
<stop stop-color="#F7DD43"/>
<stop offset="1" stop-color="#F7DD43" stop-opacity="0"/>
</linearGradient>
<linearGradient id="paint60_linear_175_1884" x1="928.5" y1="-163" x2="928.5" y2="135.818" gradientUnits="userSpaceOnUse">
<stop stop-color="#F7DD43"/>
<stop offset="1" stop-color="#F7DD43" stop-opacity="0"/>
</linearGradient>
<linearGradient id="paint61_linear_175_1884" x1="928.5" y1="-163" x2="928.5" y2="135.818" gradientUnits="userSpaceOnUse">
<stop stop-color="#F7DD43"/>
<stop offset="1" stop-color="#F7DD43" stop-opacity="0"/>
</linearGradient>
<linearGradient id="paint62_linear_175_1884" x1="928.5" y1="-163" x2="928.5" y2="135.818" gradientUnits="userSpaceOnUse">
<stop stop-color="#F7DD43"/>
<stop offset="1" stop-color="#F7DD43" stop-opacity="0"/>
</linearGradient>
<linearGradient id="paint63_linear_175_1884" x1="928.5" y1="-163" x2="928.5" y2="135.818" gradientUnits="userSpaceOnUse">
<stop stop-color="#F7DD43"/>
<stop offset="1" stop-color="#F7DD43" stop-opacity="0"/>
</linearGradient>
<linearGradient id="paint64_linear_175_1884" x1="928.5" y1="-163" x2="928.5" y2="135.818" gradientUnits="userSpaceOnUse">
<stop stop-color="#F7DD43"/>
<stop offset="1" stop-color="#F7DD43" stop-opacity="0"/>
</linearGradient>
<linearGradient id="paint65_linear_175_1884" x1="928.5" y1="-163" x2="928.5" y2="135.818" gradientUnits="userSpaceOnUse">
<stop stop-color="#F7DD43"/>
<stop offset="1" stop-color="#F7DD43" stop-opacity="0"/>
</linearGradient>
<linearGradient id="paint66_linear_175_1884" x1="928.5" y1="-163" x2="928.5" y2="135.818" gradientUnits="userSpaceOnUse">
<stop stop-color="#F7DD43"/>
<stop offset="1" stop-color="#F7DD43" stop-opacity="0"/>
</linearGradient>
<linearGradient id="paint67_linear_175_1884" x1="928.5" y1="-163" x2="928.5" y2="135.818" gradientUnits="userSpaceOnUse">
<stop stop-color="#F7DD43"/>
<stop offset="1" stop-color="#F7DD43" stop-opacity="0"/>
</linearGradient>
<linearGradient id="paint68_linear_175_1884" x1="928.5" y1="-163" x2="928.5" y2="135.818" gradientUnits="userSpaceOnUse">
<stop stop-color="#F7DD43"/>
<stop offset="1" stop-color="#F7DD43" stop-opacity="0"/>
</linearGradient>
<linearGradient id="paint69_linear_175_1884" x1="928.5" y1="-163" x2="928.5" y2="135.818" gradientUnits="userSpaceOnUse">
<stop stop-color="#F7DD43"/>
<stop offset="1" stop-color="#F7DD43" stop-opacity="0"/>
</linearGradient>
<linearGradient id="paint70_linear_175_1884" x1="928.5" y1="-163" x2="928.5" y2="135.818" gradientUnits="userSpaceOnUse">
<stop stop-color="#F7DD43"/>
<stop offset="1" stop-color="#F7DD43" stop-opacity="0"/>
</linearGradient>
<linearGradient id="paint71_linear_175_1884" x1="928.5" y1="-163" x2="928.5" y2="135.818" gradientUnits="userSpaceOnUse">
<stop stop-color="#F7DD43"/>
<stop offset="1" stop-color="#F7DD43" stop-opacity="0"/>
</linearGradient>
<linearGradient id="paint72_linear_175_1884" x1="928.5" y1="-163" x2="928.5" y2="135.818" gradientUnits="userSpaceOnUse">
<stop stop-color="#F7DD43"/>
<stop offset="1" stop-color="#F7DD43" stop-opacity="0"/>
</linearGradient>
<linearGradient id="paint73_linear_175_1884" x1="928.5" y1="-163" x2="928.5" y2="135.818" gradientUnits="userSpaceOnUse">
<stop stop-color="#F7DD43"/>
<stop offset="1" stop-color="#F7DD43" stop-opacity="0"/>
</linearGradient>
<linearGradient id="paint74_linear_175_1884" x1="928.5" y1="-163" x2="928.5" y2="135.818" gradientUnits="userSpaceOnUse">
<stop stop-color="#F7DD43"/>
<stop offset="1" stop-color="#F7DD43" stop-opacity="0"/>
</linearGradient>
<linearGradient id="paint75_linear_175_1884" x1="928.5" y1="-163" x2="928.5" y2="135.818" gradientUnits="userSpaceOnUse">
<stop stop-color="#F7DD43"/>
<stop offset="1" stop-color="#F7DD43" stop-opacity="0"/>
</linearGradient>
<linearGradient id="paint76_linear_175_1884" x1="928.5" y1="-163" x2="928.5" y2="135.818" gradientUnits="userSpaceOnUse">
<stop stop-color="#F7DD43"/>
<stop offset="1" stop-color="#F7DD43" stop-opacity="0"/>
</linearGradient>
<linearGradient id="paint77_linear_175_1884" x1="928.5" y1="-163" x2="928.5" y2="135.818" gradientUnits="userSpaceOnUse">
<stop stop-color="#F7DD43"/>
<stop offset="1" stop-color="#F7DD43" stop-opacity="0"/>
</linearGradient>
<linearGradient id="paint78_linear_175_1884" x1="928.5" y1="-163" x2="928.5" y2="135.818" gradientUnits="userSpaceOnUse">
<stop stop-color="#F7DD43"/>
<stop offset="1" stop-color="#F7DD43" stop-opacity="0"/>
</linearGradient>
<linearGradient id="paint79_linear_175_1884" x1="928.5" y1="-163" x2="928.5" y2="135.818" gradientUnits="userSpaceOnUse">
<stop stop-color="#F7DD43"/>
<stop offset="1" stop-color="#F7DD43" stop-opacity="0"/>
</linearGradient>
<linearGradient id="paint80_linear_175_1884" x1="928.5" y1="-163" x2="928.5" y2="135.818" gradientUnits="userSpaceOnUse">
<stop stop-color="#F7DD43"/>
<stop offset="1" stop-color="#F7DD43" stop-opacity="0"/>
</linearGradient>
<linearGradient id="paint81_linear_175_1884" x1="928.5" y1="-163" x2="928.5" y2="135.818" gradientUnits="userSpaceOnUse">
<stop stop-color="#F7DD43"/>
<stop offset="1" stop-color="#F7DD43" stop-opacity="0"/>
</linearGradient>
<linearGradient id="paint82_linear_175_1884" x1="928.5" y1="-163" x2="928.5" y2="135.818" gradientUnits="userSpaceOnUse">
<stop stop-color="#F7DD43"/>
<stop offset="1" stop-color="#F7DD43" stop-opacity="0"/>
</linearGradient>
<linearGradient id="paint83_linear_175_1884" x1="928.5" y1="-163" x2="928.5" y2="135.818" gradientUnits="userSpaceOnUse">
<stop stop-color="#F7DD43"/>
<stop offset="1" stop-color="#F7DD43" stop-opacity="0"/>
</linearGradient>
<linearGradient id="paint84_linear_175_1884" x1="928.5" y1="-163" x2="928.5" y2="135.818" gradientUnits="userSpaceOnUse">
<stop stop-color="#F7DD43"/>
<stop offset="1" stop-color="#F7DD43" stop-opacity="0"/>
</linearGradient>
<linearGradient id="paint85_linear_175_1884" x1="928.5" y1="-163" x2="928.5" y2="135.818" gradientUnits="userSpaceOnUse">
<stop stop-color="#F7DD43"/>
<stop offset="1" stop-color="#F7DD43" stop-opacity="0"/>
</linearGradient>
<linearGradient id="paint86_linear_175_1884" x1="928.5" y1="-163" x2="928.5" y2="135.818" gradientUnits="userSpaceOnUse">
<stop stop-color="#F7DD43"/>
<stop offset="1" stop-color="#F7DD43" stop-opacity="0"/>
</linearGradient>
<linearGradient id="paint87_linear_175_1884" x1="928.5" y1="-163" x2="928.5" y2="135.818" gradientUnits="userSpaceOnUse">
<stop stop-color="#F7DD43"/>
<stop offset="1" stop-color="#F7DD43" stop-opacity="0"/>
</linearGradient>
<linearGradient id="paint88_linear_175_1884" x1="928.5" y1="-163" x2="928.5" y2="135.818" gradientUnits="userSpaceOnUse">
<stop stop-color="#F7DD43"/>
<stop offset="1" stop-color="#F7DD43" stop-opacity="0"/>
</linearGradient>
<linearGradient id="paint89_linear_175_1884" x1="928.5" y1="-163" x2="928.5" y2="135.818" gradientUnits="userSpaceOnUse">
<stop stop-color="#F7DD43"/>
<stop offset="1" stop-color="#F7DD43" stop-opacity="0"/>
</linearGradient>
<linearGradient id="paint90_linear_175_1884" x1="928.5" y1="-163" x2="928.5" y2="135.818" gradientUnits="userSpaceOnUse">
<stop stop-color="#F7DD43"/>
<stop offset="1" stop-color="#F7DD43" stop-opacity="0"/>
</linearGradient>
<linearGradient id="paint91_linear_175_1884" x1="928.5" y1="-163" x2="928.5" y2="135.818" gradientUnits="userSpaceOnUse">
<stop stop-color="#F7DD43"/>
<stop offset="1" stop-color="#F7DD43" stop-opacity="0"/>
</linearGradient>
<linearGradient id="paint92_linear_175_1884" x1="928.5" y1="-163" x2="928.5" y2="135.818" gradientUnits="userSpaceOnUse">
<stop stop-color="#F7DD43"/>
<stop offset="1" stop-color="#F7DD43" stop-opacity="0"/>
</linearGradient>
<linearGradient id="paint93_linear_175_1884" x1="928.5" y1="-163" x2="928.5" y2="135.818" gradientUnits="userSpaceOnUse">
<stop stop-color="#F7DD43"/>
<stop offset="1" stop-color="#F7DD43" stop-opacity="0"/>
</linearGradient>
<clipPath id="clip0_175_1884">
<rect width="1024" height="753" fill="white"/>
</clipPath>
</defs>
</svg>
